<svg viewBox="0 0 512 512" xml:space="preserve" xmlns="http://www.w3.org/2000/svg" enable-background="new 0 0 512 512"><path d="M188.5 93.2c-29.8 0-58 12.9-77.5 35.4-2.5 2.9-2.2 7.3.7 9.9 2.9 2.5 7.3 2.2 9.9-.7 16.9-19.4 41.3-30.6 67-30.6s50.1 11.1 67 30.6c1.4 1.6 3.3 2.4 5.3 2.4 1.6 0 3.3-.6 4.6-1.7 2.9-2.5 3.2-7 .7-9.9-19.7-22.5-47.9-35.4-77.7-35.4z" fill="#1bc09a" class="fill-3b4652"></path><path d="M81.5 112.3c2.9 2.5 7.3 2.2 9.9-.7 24.5-28.2 59.9-44.4 97.1-44.4s72.6 16.2 97.1 44.4c1.4 1.6 3.3 2.4 5.3 2.4 1.6 0 3.3-.6 4.6-1.7 2.9-2.5 3.2-7 .7-9.9-27.2-31.3-66.4-49.2-107.7-49.2S108 71.1 80.8 102.4c-2.5 2.9-2.2 7.3.7 9.9zM354.5 444.8h-29v-35h-30v35h-196v-35h-30v35h-47c-3.9 0-7 3.1-7 7s3.1 7 7 7h332c3.9 0 7-3.1 7-7s-3.1-7-7-7z" fill="#1bc09a" class="fill-3b4652"></path><path d="M489.5 444.8H449v-35h-14v35h-40.5c-3.9 0-7 3.1-7 7s3.1 7 7 7h95c3.9 0 7-3.1 7-7s-3.1-7-7-7z" fill="#296aab" class="fill-2b79c2"></path><path d="M402.9 395.8h78.2c4.6 0 8.4-3.8 8.4-8.4V174.2c0-4.6-3.8-8.4-8.4-8.4h-78.2c-4.6 0-8.4 3.8-8.4 8.4v213.2c0 4.6 3.8 8.4 8.4 8.4zm17.7-186.5c1-10.1 9.1-18.2 19.2-19.2 13.6-1.3 24.9 10 23.6 23.6-1 10.1-9.1 18.2-19.2 19.2-13.6 1.4-24.9-10-23.6-23.6zm0 69.3c1-10.1 9.1-18.2 19.2-19.2 13.6-1.3 24.9 10 23.6 23.6-1 10.1-9.1 18.2-19.2 19.2-13.6 1.3-24.9-10-23.6-23.6zm0 69.3c1-10.1 9.1-18.2 19.2-19.2 13.6-1.3 24.9 10 23.6 23.6-1 10.1-9.1 18.2-19.2 19.2-13.6 1.3-24.9-10-23.6-23.6z" fill="#1bc09a" class="fill-3b4652"></path><path d="M354.5 179.8c0-7.7-6.3-14-14-14h-304c-7.7 0-14 6.3-14 14v163.3h332V179.8z" fill="#296aab" class="fill-2b79c2"></path><path d="M36.5 395.8h304c7.7 0 14-6.3 14-14v-24.7h-332v24.7c0 7.7 6.3 14 14 14z" fill="#1bc09a" class="fill-3b4652"></path></svg>